<svg width="435" height="215" viewBox="0 0 435 215" fill="none" xmlns="http://www.w3.org/2000/svg">
<path d="M434.5 105C434.5 245.833 349.833 210.5 209 210.5C68.1674 210.5 0.5 245.833 0.5 105C0.5 -35.8326 68.1674 6.5 209 6.5C349.833 6.5 434.5 -35.8326 434.5 105Z" fill="url(#paint0_linear)"/>
<path d="M54.8047 154H51.0078V77.9219H54.8047V154ZM49.0391 54.1562C49.0391 53.0781 49.4141 52.1641 50.1641 51.4141C50.9141 50.6172 51.8281 50.2188 52.9062 50.2188C53.9844 50.2188 54.8984 50.6172 55.6484 51.4141C56.4453 52.1641 56.8438 53.0781 56.8438 54.1562C56.8438 55.2344 56.4453 56.1484 55.6484 56.8984C54.8984 57.6484 53.9844 58.0234 52.9062 58.0234C51.8281 58.0234 50.9141 57.6484 50.1641 56.8984C49.4141 56.1484 49.0391 55.2344 49.0391 54.1562ZM74 114.484C74 107.219 75.3828 100.703 78.1484 94.9375C80.9609 89.125 84.8984 84.6016 89.9609 81.3672C95.0703 78.1328 100.836 76.5156 107.258 76.5156C113.633 76.5156 119.352 78.0859 124.414 81.2266C129.477 84.3672 133.414 88.8203 136.227 94.5859C139.086 100.352 140.539 106.844 140.586 114.062V117.438C140.586 124.75 139.203 131.289 136.438 137.055C133.672 142.82 129.734 147.32 124.625 150.555C119.562 153.789 113.82 155.406 107.398 155.406C100.977 155.406 95.2109 153.812 90.1016 150.625C85.0391 147.438 81.1016 142.984 78.2891 137.266C75.4766 131.5 74.0469 125.031 74 117.859V114.484ZM77.7969 117.438C77.7969 123.766 79.0391 129.578 81.5234 134.875C84.0547 140.125 87.5469 144.227 92 147.18C96.5 150.133 101.633 151.609 107.398 151.609C116.07 151.609 123.125 148.352 128.562 141.836C134.047 135.32 136.789 126.93 136.789 116.664V114.484C136.789 108.25 135.523 102.484 132.992 97.1875C130.461 91.8906 126.945 87.7656 122.445 84.8125C117.992 81.8125 112.93 80.3125 107.258 80.3125C98.5859 80.3125 91.5078 83.6172 86.0234 90.2266C80.5391 96.8359 77.7969 105.156 77.7969 115.188V117.438ZM162.875 95.6406C165.359 89.7344 169.016 85.0703 173.844 81.6484C178.672 78.2266 184.016 76.5156 189.875 76.5156C198.031 76.5156 204.078 78.8359 208.016 83.4766C212 88.0703 214.016 95.0312 214.062 104.359V154H210.266V104.219C210.219 96.0625 208.555 90.0391 205.273 86.1484C201.992 82.2109 196.789 80.2422 189.664 80.2422C183.102 80.2422 177.406 82.5859 172.578 87.2734C167.797 91.9141 164.562 97.9141 162.875 105.273V154H159.078V77.9219H162.875V95.6406ZM300.125 116.805C300.125 128.43 297.453 137.781 292.109 144.859C286.766 151.891 279.594 155.406 270.594 155.406C260.984 155.406 253.555 152.008 248.305 145.211L247.672 154H235.719V46H248.727V86.2891C253.977 79.7734 261.219 76.5156 270.453 76.5156C279.688 76.5156 286.93 80.0078 292.18 86.9922C297.477 93.9766 300.125 103.539 300.125 115.68V116.805ZM287.117 115.328C287.117 106.469 285.406 99.625 281.984 94.7969C278.562 89.9688 273.641 87.5547 267.219 87.5547C258.641 87.5547 252.477 91.5391 248.727 99.5078V132.414C252.711 140.383 258.922 144.367 267.359 144.367C273.594 144.367 278.445 141.953 281.914 137.125C285.383 132.297 287.117 125.031 287.117 115.328ZM330.711 154H317.703V77.9219H330.711V154ZM316.648 57.7422C316.648 55.6328 317.281 53.8516 318.547 52.3984C319.859 50.9453 321.781 50.2188 324.312 50.2188C326.844 50.2188 328.766 50.9453 330.078 52.3984C331.391 53.8516 332.047 55.6328 332.047 57.7422C332.047 59.8516 331.391 61.6094 330.078 63.0156C328.766 64.4219 326.844 65.125 324.312 65.125C321.781 65.125 319.859 64.4219 318.547 63.0156C317.281 61.6094 316.648 59.8516 316.648 57.7422ZM369.242 59.5V77.9219H383.445V87.9766H369.242V135.156C369.242 138.203 369.875 140.5 371.141 142.047C372.406 143.547 374.562 144.297 377.609 144.297C379.109 144.297 381.172 144.016 383.797 143.453V154C380.375 154.938 377.047 155.406 373.812 155.406C368 155.406 363.617 153.648 360.664 150.133C357.711 146.617 356.234 141.625 356.234 135.156V87.9766H342.383V77.9219H356.234V59.5H369.242Z" fill="white"/>
<path d="M206.506 176.257L207.928 170.604H209.192L207.039 178H206.014L204.216 172.395L202.466 178H201.44L199.294 170.604H200.552L202.008 176.141L203.73 170.604H204.749L206.506 176.257ZM213.554 178.137C212.551 178.137 211.735 177.809 211.106 177.152C210.478 176.492 210.163 175.61 210.163 174.507V174.274C210.163 173.541 210.302 172.887 210.58 172.312C210.863 171.734 211.255 171.283 211.756 170.959C212.262 170.631 212.809 170.467 213.396 170.467C214.358 170.467 215.105 170.784 215.639 171.417C216.172 172.05 216.438 172.957 216.438 174.138V174.664H211.428C211.446 175.393 211.658 175.983 212.063 176.435C212.474 176.881 212.993 177.104 213.622 177.104C214.069 177.104 214.447 177.013 214.757 176.831C215.067 176.649 215.338 176.407 215.57 176.106L216.343 176.708C215.723 177.66 214.793 178.137 213.554 178.137ZM213.396 171.506C212.886 171.506 212.458 171.693 212.111 172.066C211.765 172.436 211.551 172.955 211.469 173.625H215.174V173.529C215.137 172.887 214.964 172.39 214.654 172.039C214.344 171.684 213.925 171.506 213.396 171.506ZM222.57 170.604L222.604 171.424C223.147 170.786 223.878 170.467 224.799 170.467C225.833 170.467 226.537 170.863 226.911 171.656C227.157 171.301 227.476 171.014 227.868 170.795C228.265 170.576 228.732 170.467 229.27 170.467C230.892 170.467 231.717 171.326 231.744 173.044V178H230.479V173.119C230.479 172.59 230.359 172.196 230.117 171.937C229.876 171.672 229.47 171.54 228.9 171.54C228.431 171.54 228.041 171.681 227.731 171.964C227.422 172.242 227.242 172.618 227.191 173.092V178H225.92V173.153C225.92 172.078 225.394 171.54 224.341 171.54C223.511 171.54 222.944 171.893 222.639 172.6V178H221.374V170.604H222.57ZM238.225 178C238.152 177.854 238.092 177.594 238.047 177.221C237.459 177.831 236.757 178.137 235.941 178.137C235.212 178.137 234.613 177.932 234.144 177.521C233.679 177.107 233.446 176.583 233.446 175.949C233.446 175.179 233.738 174.582 234.321 174.158C234.909 173.73 235.734 173.516 236.796 173.516H238.026V172.935C238.026 172.493 237.894 172.142 237.63 171.882C237.366 171.618 236.976 171.485 236.461 171.485C236.01 171.485 235.632 171.599 235.326 171.827C235.021 172.055 234.868 172.331 234.868 172.654H233.597C233.597 172.285 233.727 171.93 233.986 171.588C234.251 171.242 234.606 170.968 235.053 170.768C235.504 170.567 235.998 170.467 236.536 170.467C237.388 170.467 238.056 170.681 238.539 171.109C239.022 171.533 239.273 172.119 239.291 172.866V176.271C239.291 176.95 239.378 177.49 239.551 177.891V178H238.225ZM236.126 177.036C236.522 177.036 236.898 176.934 237.254 176.729C237.609 176.523 237.867 176.257 238.026 175.929V174.411H237.035C235.486 174.411 234.711 174.865 234.711 175.771C234.711 176.168 234.843 176.478 235.107 176.701C235.372 176.924 235.711 177.036 236.126 177.036ZM243.338 174.575L242.545 175.402V178H241.28V167.5H242.545V173.851L243.222 173.037L245.525 170.604H247.063L244.186 173.693L247.398 178H245.915L243.338 174.575ZM251.302 178.137C250.299 178.137 249.483 177.809 248.854 177.152C248.226 176.492 247.911 175.61 247.911 174.507V174.274C247.911 173.541 248.05 172.887 248.328 172.312C248.611 171.734 249.003 171.283 249.504 170.959C250.01 170.631 250.557 170.467 251.145 170.467C252.106 170.467 252.854 170.784 253.387 171.417C253.92 172.05 254.187 172.957 254.187 174.138V174.664H249.176C249.194 175.393 249.406 175.983 249.812 176.435C250.222 176.881 250.741 177.104 251.37 177.104C251.817 177.104 252.195 177.013 252.505 176.831C252.815 176.649 253.086 176.407 253.318 176.106L254.091 176.708C253.471 177.66 252.541 178.137 251.302 178.137ZM251.145 171.506C250.634 171.506 250.206 171.693 249.859 172.066C249.513 172.436 249.299 172.955 249.217 173.625H252.922V173.529C252.885 172.887 252.712 172.39 252.402 172.039C252.092 171.684 251.673 171.506 251.145 171.506ZM263.436 176.038C263.436 175.696 263.306 175.432 263.046 175.245C262.791 175.054 262.342 174.89 261.699 174.753C261.061 174.616 260.553 174.452 260.175 174.261C259.801 174.069 259.523 173.841 259.341 173.577C259.163 173.313 259.074 172.998 259.074 172.634C259.074 172.028 259.329 171.515 259.84 171.096C260.355 170.676 261.011 170.467 261.809 170.467C262.647 170.467 263.326 170.683 263.846 171.116C264.37 171.549 264.632 172.103 264.632 172.777H263.36C263.36 172.431 263.212 172.132 262.916 171.882C262.624 171.631 262.255 171.506 261.809 171.506C261.348 171.506 260.988 171.606 260.729 171.807C260.469 172.007 260.339 172.269 260.339 172.593C260.339 172.898 260.46 173.128 260.701 173.283C260.943 173.438 261.378 173.586 262.007 173.728C262.64 173.869 263.153 174.037 263.545 174.233C263.937 174.429 264.226 174.666 264.413 174.944C264.604 175.218 264.7 175.553 264.7 175.949C264.7 176.61 264.436 177.141 263.907 177.542C263.379 177.938 262.693 178.137 261.85 178.137C261.257 178.137 260.733 178.032 260.277 177.822C259.822 177.613 259.464 177.321 259.204 176.947C258.949 176.569 258.821 176.161 258.821 175.724H260.086C260.109 176.147 260.277 176.485 260.592 176.735C260.911 176.981 261.33 177.104 261.85 177.104C262.328 177.104 262.711 177.009 262.998 176.817C263.29 176.621 263.436 176.362 263.436 176.038ZM266.013 174.233C266.013 173.509 266.154 172.857 266.437 172.278C266.724 171.7 267.12 171.253 267.626 170.938C268.136 170.624 268.717 170.467 269.369 170.467C270.376 170.467 271.19 170.815 271.81 171.513C272.434 172.21 272.746 173.137 272.746 174.295V174.384C272.746 175.104 272.607 175.751 272.329 176.325C272.056 176.895 271.661 177.339 271.146 177.658C270.636 177.977 270.048 178.137 269.383 178.137C268.38 178.137 267.567 177.788 266.942 177.091C266.323 176.394 266.013 175.471 266.013 174.322V174.233ZM267.284 174.384C267.284 175.204 267.473 175.863 267.852 176.359C268.234 176.856 268.745 177.104 269.383 177.104C270.025 177.104 270.536 176.854 270.914 176.353C271.292 175.847 271.481 175.14 271.481 174.233C271.481 173.422 271.288 172.766 270.9 172.265C270.518 171.759 270.007 171.506 269.369 171.506C268.745 171.506 268.241 171.754 267.858 172.251C267.476 172.748 267.284 173.459 267.284 174.384ZM275.706 178H274.441V167.5H275.706V178ZM282.303 177.269C281.811 177.847 281.088 178.137 280.136 178.137C279.347 178.137 278.746 177.909 278.331 177.453C277.921 176.993 277.714 176.314 277.709 175.416V170.604H278.974V175.382C278.974 176.503 279.429 177.063 280.341 177.063C281.307 177.063 281.95 176.703 282.269 175.983V170.604H283.533V178H282.33L282.303 177.269ZM287.177 168.812V170.604H288.558V171.581H287.177V176.168C287.177 176.464 287.238 176.688 287.361 176.838C287.484 176.984 287.694 177.057 287.99 177.057C288.136 177.057 288.337 177.029 288.592 176.975V178C288.259 178.091 287.936 178.137 287.621 178.137C287.056 178.137 286.63 177.966 286.343 177.624C286.056 177.282 285.912 176.797 285.912 176.168V171.581H284.565V170.604H285.912V168.812H287.177ZM291.415 178H290.15V170.604H291.415V178ZM290.048 168.642C290.048 168.437 290.109 168.263 290.232 168.122C290.36 167.981 290.547 167.91 290.793 167.91C291.039 167.91 291.226 167.981 291.354 168.122C291.481 168.263 291.545 168.437 291.545 168.642C291.545 168.847 291.481 169.018 291.354 169.154C291.226 169.291 291.039 169.359 290.793 169.359C290.547 169.359 290.36 169.291 290.232 169.154C290.109 169.018 290.048 168.847 290.048 168.642ZM293.11 174.233C293.11 173.509 293.252 172.857 293.534 172.278C293.821 171.7 294.218 171.253 294.724 170.938C295.234 170.624 295.815 170.467 296.467 170.467C297.474 170.467 298.287 170.815 298.907 171.513C299.532 172.21 299.844 173.137 299.844 174.295V174.384C299.844 175.104 299.705 175.751 299.427 176.325C299.153 176.895 298.759 177.339 298.244 177.658C297.734 177.977 297.146 178.137 296.48 178.137C295.478 178.137 294.664 177.788 294.04 177.091C293.42 176.394 293.11 175.471 293.11 174.322V174.233ZM294.382 174.384C294.382 175.204 294.571 175.863 294.949 176.359C295.332 176.856 295.842 177.104 296.48 177.104C297.123 177.104 297.633 176.854 298.012 176.353C298.39 175.847 298.579 175.14 298.579 174.233C298.579 173.422 298.385 172.766 297.998 172.265C297.615 171.759 297.105 171.506 296.467 171.506C295.842 171.506 295.339 171.754 294.956 172.251C294.573 172.748 294.382 173.459 294.382 174.384ZM302.626 170.604L302.667 171.533C303.232 170.822 303.97 170.467 304.882 170.467C306.445 170.467 307.233 171.349 307.247 173.112V178H305.982V173.105C305.978 172.572 305.855 172.178 305.613 171.923C305.376 171.668 305.005 171.54 304.499 171.54C304.089 171.54 303.729 171.649 303.419 171.868C303.109 172.087 302.868 172.374 302.694 172.729V178H301.43V170.604H302.626ZM313.249 178V171.581H312.08V170.604H313.249V169.845C313.249 169.052 313.461 168.439 313.885 168.006C314.309 167.573 314.908 167.356 315.683 167.356C315.974 167.356 316.264 167.395 316.551 167.473L316.482 168.498C316.268 168.457 316.04 168.437 315.799 168.437C315.389 168.437 315.072 168.557 314.849 168.799C314.625 169.036 314.514 169.378 314.514 169.824V170.604H316.093V171.581H314.514V178H313.249ZM317.159 174.233C317.159 173.509 317.3 172.857 317.583 172.278C317.87 171.7 318.267 171.253 318.772 170.938C319.283 170.624 319.864 170.467 320.516 170.467C321.523 170.467 322.336 170.815 322.956 171.513C323.58 172.21 323.893 173.137 323.893 174.295V174.384C323.893 175.104 323.754 175.751 323.476 176.325C323.202 176.895 322.808 177.339 322.293 177.658C321.783 177.977 321.195 178.137 320.529 178.137C319.527 178.137 318.713 177.788 318.089 177.091C317.469 176.394 317.159 175.471 317.159 174.322V174.233ZM318.431 174.384C318.431 175.204 318.62 175.863 318.998 176.359C319.381 176.856 319.891 177.104 320.529 177.104C321.172 177.104 321.682 176.854 322.061 176.353C322.439 175.847 322.628 175.14 322.628 174.233C322.628 173.422 322.434 172.766 322.047 172.265C321.664 171.759 321.154 171.506 320.516 171.506C319.891 171.506 319.388 171.754 319.005 172.251C318.622 172.748 318.431 173.459 318.431 174.384ZM329.054 171.738C328.862 171.706 328.655 171.69 328.432 171.69C327.602 171.69 327.039 172.044 326.743 172.75V178H325.479V170.604H326.709L326.729 171.458C327.144 170.797 327.732 170.467 328.493 170.467C328.739 170.467 328.926 170.499 329.054 170.562V171.738ZM336.765 178.137C335.762 178.137 334.946 177.809 334.317 177.152C333.688 176.492 333.374 175.61 333.374 174.507V174.274C333.374 173.541 333.513 172.887 333.791 172.312C334.074 171.734 334.465 171.283 334.967 170.959C335.473 170.631 336.02 170.467 336.607 170.467C337.569 170.467 338.316 170.784 338.85 171.417C339.383 172.05 339.649 172.957 339.649 174.138V174.664H334.639C334.657 175.393 334.869 175.983 335.274 176.435C335.685 176.881 336.204 177.104 336.833 177.104C337.28 177.104 337.658 177.013 337.968 176.831C338.278 176.649 338.549 176.407 338.781 176.106L339.554 176.708C338.934 177.66 338.004 178.137 336.765 178.137ZM336.607 171.506C336.097 171.506 335.669 171.693 335.322 172.066C334.976 172.436 334.762 172.955 334.68 173.625H338.385V173.529C338.348 172.887 338.175 172.39 337.865 172.039C337.555 171.684 337.136 171.506 336.607 171.506ZM343.464 176.284L345.296 170.604H346.588L343.936 178H342.972L340.292 170.604H341.584L343.464 176.284ZM350.778 178.137C349.776 178.137 348.96 177.809 348.331 177.152C347.702 176.492 347.388 175.61 347.388 174.507V174.274C347.388 173.541 347.527 172.887 347.805 172.312C348.087 171.734 348.479 171.283 348.98 170.959C349.486 170.631 350.033 170.467 350.621 170.467C351.583 170.467 352.33 170.784 352.863 171.417C353.396 172.05 353.663 172.957 353.663 174.138V174.664H348.652C348.671 175.393 348.882 175.983 349.288 176.435C349.698 176.881 350.218 177.104 350.847 177.104C351.293 177.104 351.672 177.013 351.981 176.831C352.291 176.649 352.562 176.407 352.795 176.106L353.567 176.708C352.948 177.66 352.018 178.137 350.778 178.137ZM350.621 171.506C350.111 171.506 349.682 171.693 349.336 172.066C348.99 172.436 348.775 172.955 348.693 173.625H352.398V173.529C352.362 172.887 352.189 172.39 351.879 172.039C351.569 171.684 351.15 171.506 350.621 171.506ZM358.708 171.738C358.517 171.706 358.309 171.69 358.086 171.69C357.257 171.69 356.694 172.044 356.397 172.75V178H355.133V170.604H356.363L356.384 171.458C356.799 170.797 357.386 170.467 358.147 170.467C358.394 170.467 358.58 170.499 358.708 170.562V171.738ZM362.42 176.147L364.143 170.604H365.496L362.522 179.142C362.062 180.372 361.331 180.987 360.328 180.987L360.089 180.967L359.617 180.878V179.853L359.959 179.88C360.387 179.88 360.72 179.793 360.957 179.62C361.199 179.447 361.397 179.13 361.552 178.67L361.832 177.918L359.193 170.604H360.574L362.42 176.147ZM366.187 174.233C366.187 173.509 366.328 172.857 366.61 172.278C366.897 171.7 367.294 171.253 367.8 170.938C368.31 170.624 368.891 170.467 369.543 170.467C370.55 170.467 371.364 170.815 371.983 171.513C372.608 172.21 372.92 173.137 372.92 174.295V174.384C372.92 175.104 372.781 175.751 372.503 176.325C372.229 176.895 371.835 177.339 371.32 177.658C370.81 177.977 370.222 178.137 369.557 178.137C368.554 178.137 367.741 177.788 367.116 177.091C366.496 176.394 366.187 175.471 366.187 174.322V174.233ZM367.458 174.384C367.458 175.204 367.647 175.863 368.025 176.359C368.408 176.856 368.919 177.104 369.557 177.104C370.199 177.104 370.71 176.854 371.088 176.353C371.466 175.847 371.655 175.14 371.655 174.233C371.655 173.422 371.462 172.766 371.074 172.265C370.691 171.759 370.181 171.506 369.543 171.506C368.919 171.506 368.415 171.754 368.032 172.251C367.649 172.748 367.458 173.459 367.458 174.384ZM375.702 170.604L375.743 171.533C376.308 170.822 377.047 170.467 377.958 170.467C379.521 170.467 380.31 171.349 380.323 173.112V178H379.059V173.105C379.054 172.572 378.931 172.178 378.689 171.923C378.452 171.668 378.081 171.54 377.575 171.54C377.165 171.54 376.805 171.649 376.495 171.868C376.185 172.087 375.944 172.374 375.771 172.729V178H374.506V170.604H375.702ZM385.3 178.137C384.297 178.137 383.481 177.809 382.853 177.152C382.224 176.492 381.909 175.61 381.909 174.507V174.274C381.909 173.541 382.048 172.887 382.326 172.312C382.609 171.734 383.001 171.283 383.502 170.959C384.008 170.631 384.555 170.467 385.143 170.467C386.104 170.467 386.852 170.784 387.385 171.417C387.918 172.05 388.185 172.957 388.185 174.138V174.664H383.174C383.192 175.393 383.404 175.983 383.81 176.435C384.22 176.881 384.739 177.104 385.368 177.104C385.815 177.104 386.193 177.013 386.503 176.831C386.813 176.649 387.084 176.407 387.316 176.106L388.089 176.708C387.469 177.66 386.539 178.137 385.3 178.137ZM385.143 171.506C384.632 171.506 384.204 171.693 383.857 172.066C383.511 172.436 383.297 172.955 383.215 173.625H386.92V173.529C386.883 172.887 386.71 172.39 386.4 172.039C386.09 171.684 385.671 171.506 385.143 171.506Z" fill="white"/>
<defs>
<linearGradient id="paint0_linear" x1="209" y1="-150" x2="209" y2="360" gradientUnits="userSpaceOnUse">
<stop stop-color="#B268FC"/>
<stop offset="1" stop-color="#5F44FF"/>
</linearGradient>
</defs>
</svg>
